# xmcd
#
# Track frame offsets: 
#        183
#        12125
#        25053
#        36755
#        49913
#        60145
#        71838
#        82758
#        95018
#        107240
#        123420
#        136853
#        154683
#        165913
#        177065
#
# Disc length: 2575 seconds
#
# Revision: 5
# Processed by: cddbd v1.5.2PL0 Copyright (c) Steve Scherf et al.
# Submitted via: ExactAudioCopy v0.99pb5
#
DISCID=af0a0d0f
DTITLE=Various Artists              FJGG - Lo Mejor del Soul [CD 1)
DYEAR=1992
DGENRE=blues
TTITLE0=Ottis Redding - Sittin' on the dock of the bay
TTITLE1=Ben E King - Spanish Harlem
TTITLE2=The Platters - Only you
TTITLE3=Percy Sledge - When a man loves a woman
TTITLE4=Louis Armstrong - What a wonderful world
TTITLE5=The Drifters - Up on the roof
TTITLE6=Sam and Dave - Bring it on home to me
TTITLE7=Jerry Butler - He will break your heart
TTITLE8=Sam Cooke - You send me
TTITLE9=Righteous Brothers - Unchained melody
TTITLE10=Joe Tex - I've got to do a little bit better
TTITLE11=Brook Benton - A rainy night in Georgia
TTITLE12=Gene Chandler - Daddy's home
TTITLE13=Paul and Paula - Hey Paula
TTITLE14=Nina Simone - My baby just cares for me
EXTD=
EXTT0=
EXTT1=
EXTT2=
EXTT3=
EXTT4=
EXTT5=
EXTT6=
EXTT7=
EXTT8=
EXTT9=
EXTT10=
EXTT11=
EXTT12=
EXTT13=
EXTT14=
PLAYORDER=
